<svg width="275" height="53" viewBox="0 0 275 53" fill="none" xmlns="http://www.w3.org/2000/svg">
<g clip-path="url(#clip0_108_321)">
<path d="M71.6239 45.0338C67.8679 41.1164 65.9736 36.1786 65.9736 30.2202C65.9736 24.2618 67.8679 19.3239 71.6239 15.4065C75.3798 11.4891 80.0502 9.54688 85.6352 9.54688C91.2201 9.54688 95.8905 11.4891 99.6464 15.4065C103.402 19.3239 105.297 24.2618 105.297 30.2202C105.297 36.1786 103.402 41.1164 99.6464 45.0338C95.8905 48.9512 91.1874 50.8935 85.6352 50.8935C80.0829 50.8935 75.4125 48.9512 71.6239 45.0338ZM73.5182 17.1183C70.3501 20.4761 68.7498 24.8543 68.7498 30.2531C68.7498 35.6518 70.3501 40.0301 73.5182 43.3879C76.6862 46.7456 80.7361 48.4245 85.6678 48.4245C90.5669 48.4245 94.6167 46.7456 97.8175 43.3879C100.986 40.0301 102.586 35.6518 102.586 30.2531C102.586 24.8543 100.986 20.4761 97.8175 17.1183C94.6494 13.7605 90.5995 12.0817 85.6678 12.0817C80.7361 12.0817 76.6862 13.7605 73.5182 17.1183Z" fill="white"/>
<path d="M118.916 49.7744V10.6992H123.358L145.502 47.2725H145.567L145.502 46.7129V10.6992H148.278V49.8073H143.836L121.659 13.234H121.594L121.659 13.7936V49.8402H118.916V49.7744Z" fill="white"/>
<path d="M159.35 13.2011V10.6992H190.377V13.2011H176.235V49.7744H173.459V13.2011H159.35Z" fill="white"/>
<path d="M200.926 35.5533V10.6992H203.702V35.5533C203.702 39.5694 204.78 42.7296 206.903 45.0011C209.058 47.2725 211.932 48.4247 215.59 48.4247C219.248 48.4247 222.155 47.2725 224.278 45.0011C226.434 42.7296 227.479 39.5694 227.479 35.5533V10.6992H230.255V35.5533C230.255 40.0961 228.883 43.7831 226.14 46.647C223.396 49.511 219.869 50.9265 215.558 50.9265C211.246 50.9265 207.719 49.511 204.976 46.647C202.297 43.7831 200.926 40.0961 200.926 35.5533Z" fill="white"/>
<path d="M245.834 49.7744V10.6992H261.642C265.691 10.6992 268.925 11.7856 271.342 13.9911C273.759 16.1967 274.934 18.9949 274.934 22.4185C274.934 25.6446 274.052 28.2781 272.256 30.2862C270.46 32.2943 267.847 33.5781 264.418 34.1377L274.379 49.7744H271.342L261.38 34.4011H248.643V49.7744H245.834ZM248.577 31.8992H261.609C265.006 31.8992 267.618 31.0762 269.415 29.3974C271.211 27.7185 272.126 25.3812 272.126 22.4185C272.126 19.5545 271.211 17.2831 269.415 15.67C267.618 14.0241 265.006 13.2011 261.609 13.2011H248.577V31.8992Z" fill="white"/>
<path d="M22.1764 35.454C22.9602 29.7919 27.7286 25.5783 33.4442 25.5783H56.1105L40.7274 10.0733H20.5107C17.0487 10.0733 13.8806 11.3571 11.4311 13.4969L0 0V34.4994L15.775 53.1317V37.1329C16.9834 37.5609 18.2571 37.8571 19.6289 37.923C20.0861 45.264 26.0956 50.9919 33.4442 50.9919H56.1105L40.7274 35.487H22.1764V35.454ZM2.4822 33.5447V6.71553L9.7328 15.2745C7.8385 17.6776 6.69537 20.7062 6.69537 23.9981C6.69537 29.0677 9.34086 33.5118 13.3581 35.9478V46.3832L2.4822 33.5447ZM13.3581 32.8863C10.7779 30.7795 9.14489 27.5863 9.14489 23.9652C9.14489 21.4304 9.96142 19.0603 11.3658 17.1839L13.3581 19.5211V32.8863ZM13.0641 15.3404C15.0564 13.5957 17.6692 12.5093 20.5434 12.5093H39.715L50.1989 23.0764H33.4768C26.4875 23.0764 20.5434 28.4752 19.7269 35.4211C18.3551 35.3224 17.016 34.9603 15.8403 34.4335V18.6323L13.0641 15.3404ZM39.715 37.923L50.1989 48.4901H33.4768C27.5 48.4901 22.601 43.8814 22.1437 37.923H39.715Z" fill="white"/>
</g>
<defs>
<clipPath id="clip0_108_321">
<rect width="275" height="53" fill="white"/>
</clipPath>
</defs>
</svg>
